<svg xmlns="http://www.w3.org/2000/svg" xmlns:xlink="http://www.w3.org/1999/xlink" width="500" zoomAndPan="magnify" viewBox="0 0 375 124.499996" height="166" preserveAspectRatio="xMidYMid meet" version="1.0"><path fill="rgb(100%, 8.628845%, 8.628845%)" d="M 345.914062 27.554688 C 334.441406 28.296875 313.921875 29.226562 311.007812 29.164062 C 310.199219 29.101562 309.023438 29.414062 308.339844 29.722656 C 307.71875 30.09375 307.160156 30.15625 307.160156 29.90625 C 307.160156 29.289062 292.28125 30.03125 284.964844 30.960938 C 282.175781 31.332031 279.570312 31.457031 279.261719 31.269531 C 278.953125 31.085938 278.019531 31.269531 277.277344 31.640625 C 275.542969 32.570312 273.0625 32.878906 273.0625 32.199219 C 273.0625 31.953125 272.6875 31.582031 272.316406 31.394531 C 270.890625 30.898438 259.296875 32.136719 258.304688 32.941406 C 257.5 33.625 257.4375 33.625 257.808594 32.941406 C 258.179688 32.261719 256.816406 32.199219 250.308594 32.507812 C 237.164062 33.191406 230.652344 33.871094 230.40625 34.613281 C 230.09375 35.605469 227.800781 36.78125 227.800781 35.914062 C 227.800781 35.605469 228.171875 35.296875 228.605469 35.296875 C 229.101562 35.296875 229.476562 34.925781 229.476562 34.492188 C 229.476562 33.933594 228.171875 33.871094 223.832031 34.179688 C 220.734375 34.429688 215.277344 34.800781 211.679688 34.984375 C 208.085938 35.171875 203 35.605469 200.335938 35.914062 C 197.730469 36.285156 195.25 36.410156 194.941406 36.222656 C 194.628906 36.039062 193.515625 36.285156 192.460938 36.84375 C 191.40625 37.402344 190.289062 37.648438 189.980469 37.464844 C 189.671875 37.277344 189.113281 37.648438 188.738281 38.328125 C 188.242188 39.320312 188.304688 39.691406 189.296875 40.25 C 191.035156 41.117188 191.652344 40.992188 190.351562 40.0625 C 189.421875 39.382812 189.359375 39.136719 190.042969 38.886719 C 190.539062 38.703125 191.28125 38.949219 191.714844 39.382812 C 192.148438 39.878906 192.273438 40.25 192.027344 40.3125 C 191.777344 40.3125 192.335938 40.621094 193.390625 40.929688 C 194.507812 41.242188 195.3125 41.242188 195.558594 40.808594 C 195.808594 40.496094 196.429688 40.375 196.984375 40.621094 C 197.605469 40.808594 198.039062 40.683594 198.039062 40.3125 C 198.039062 39.941406 198.351562 39.628906 198.722656 39.628906 C 199.03125 39.628906 199.15625 39.941406 198.90625 40.3125 C 198.597656 40.808594 199.402344 40.867188 201.511719 40.621094 C 203.1875 40.375 206.96875 40.125 210.007812 40.0625 C 215.585938 40 215.957031 39.753906 215.460938 36.96875 C 215.402344 36.65625 215.648438 36.597656 215.957031 36.78125 C 216.269531 36.96875 216.390625 37.710938 216.207031 38.453125 C 215.835938 39.691406 216.019531 39.753906 220.421875 39.382812 C 222.964844 39.195312 227.675781 38.886719 230.902344 38.703125 C 234.125 38.453125 238.339844 38.207031 240.199219 38.082031 C 248.507812 37.464844 265.496094 36.597656 267.605469 36.71875 C 268.84375 36.78125 269.714844 36.65625 269.589844 36.410156 C 269.402344 36.164062 270.085938 36.101562 271.078125 36.285156 C 272.132812 36.472656 273.0625 36.347656 273.308594 35.976562 C 273.558594 35.667969 274.175781 35.542969 274.796875 35.730469 C 275.664062 36.039062 275.664062 35.914062 274.671875 35.171875 C 273.742188 34.429688 273.679688 34.179688 274.363281 33.933594 C 274.859375 33.746094 275.601562 33.996094 276.039062 34.429688 C 276.472656 34.925781 276.59375 35.296875 276.347656 35.359375 C 276.097656 35.359375 276.65625 35.667969 277.710938 35.976562 C 278.828125 36.285156 279.632812 36.285156 279.882812 35.851562 C 280.128906 35.542969 280.75 35.417969 281.308594 35.667969 C 281.925781 35.851562 282.363281 35.730469 282.363281 35.359375 C 282.363281 34.984375 282.671875 34.675781 283.042969 34.675781 C 283.355469 34.675781 283.476562 34.984375 283.230469 35.359375 C 282.917969 35.851562 283.726562 35.914062 285.832031 35.667969 C 287.507812 35.417969 291.289062 35.171875 294.328125 35.109375 C 297.304688 35.046875 299.722656 34.863281 299.722656 34.675781 C 299.722656 34.492188 301.273438 34.429688 303.132812 34.492188 C 305.054688 34.550781 306.417969 34.429688 306.292969 34.179688 C 306.167969 33.933594 311.128906 33.6875 317.332031 33.625 C 323.46875 33.5625 330.910156 33.253906 333.824219 33.066406 C 336.738281 32.820312 340.023438 32.695312 341.199219 32.757812 C 342.316406 32.878906 343.121094 32.695312 342.9375 32.386719 C 342.75 32.136719 346.65625 31.890625 351.554688 31.828125 C 356.453125 31.828125 360.667969 31.640625 360.855469 31.457031 C 361.039062 31.269531 360.980469 30.09375 360.792969 28.855469 C 360.421875 27.058594 360.046875 26.625 358.996094 26.6875 C 358.3125 26.75 352.421875 27.121094 345.914062 27.554688 Z M 347.152344 29.722656 C 347.339844 30.09375 347.089844 30.15625 346.59375 29.96875 C 345.480469 29.535156 345.292969 29.101562 346.160156 29.101562 C 346.53125 29.101562 346.964844 29.351562 347.152344 29.722656 Z M 319.5625 31.582031 C 319.5625 31.890625 319.253906 32.199219 318.878906 32.199219 C 318.570312 32.199219 318.445312 31.890625 318.632812 31.582031 C 318.816406 31.207031 319.128906 30.960938 319.3125 30.960938 C 319.4375 30.960938 319.5625 31.207031 319.5625 31.582031 Z M 279.882812 33.5 C 279.882812 33.808594 279.570312 34.058594 279.199219 34.058594 C 278.890625 34.058594 278.765625 33.746094 279.011719 33.3125 C 279.324219 32.878906 279.136719 32.757812 278.457031 33.003906 C 277.773438 33.253906 277.585938 33.128906 277.835938 32.445312 C 278.082031 31.765625 278.394531 31.703125 279.011719 32.261719 C 279.507812 32.632812 279.882812 33.191406 279.882812 33.5 Z M 322.664062 32.199219 C 322.664062 32.507812 322.351562 32.820312 321.980469 32.820312 C 321.671875 32.820312 321.546875 32.507812 321.730469 32.199219 C 321.917969 31.828125 322.226562 31.582031 322.414062 31.582031 C 322.539062 31.582031 322.664062 31.828125 322.664062 32.199219 Z M 286.515625 33.191406 C 286.328125 33.375 285.773438 33.4375 285.335938 33.253906 C 284.839844 33.066406 285.027344 32.878906 285.710938 32.878906 C 286.390625 32.820312 286.761719 33.003906 286.515625 33.191406 Z M 217.261719 35.914062 C 217.261719 36.222656 217.136719 36.535156 217.011719 36.535156 C 216.828125 36.535156 216.515625 36.222656 216.332031 35.914062 C 216.144531 35.542969 216.269531 35.296875 216.578125 35.296875 C 216.949219 35.296875 217.261719 35.542969 217.261719 35.914062 Z M 227.179688 35.542969 C 227.179688 35.730469 226.933594 36.039062 226.5625 36.222656 C 226.25 36.410156 225.941406 36.285156 225.941406 35.976562 C 225.941406 35.605469 226.25 35.296875 226.5625 35.296875 C 226.933594 35.296875 227.179688 35.417969 227.179688 35.542969 Z M 233.441406 36.71875 C 232.824219 37.277344 232.761719 37.214844 233.132812 36.347656 C 233.320312 35.730469 233.691406 35.417969 233.875 35.605469 C 234.0625 35.792969 233.875 36.285156 233.441406 36.71875 Z M 195.558594 38.453125 C 195.558594 38.761719 195.25 39.011719 194.878906 39.011719 C 194.566406 39.011719 194.445312 38.703125 194.691406 38.269531 C 195.003906 37.835938 194.816406 37.710938 194.132812 37.957031 C 193.453125 38.207031 193.265625 38.082031 193.515625 37.402344 C 193.761719 36.71875 194.070312 36.65625 194.691406 37.214844 C 195.1875 37.585938 195.558594 38.144531 195.558594 38.453125 Z M 202.195312 38.144531 C 202.007812 38.328125 201.449219 38.390625 201.015625 38.207031 C 200.519531 38.019531 200.707031 37.835938 201.386719 37.835938 C 202.070312 37.773438 202.441406 37.957031 202.195312 38.144531 Z M 202.195312 38.144531 " fill-opacity="1" fill-rule="nonzero"/><path fill="rgb(100%, 8.628845%, 8.628845%)" d="M 338.535156 35.730469 C 338.84375 36.597656 338.78125 36.65625 338.285156 35.976562 C 336.738281 33.808594 331.34375 37.523438 329.109375 42.417969 C 326.566406 47.867188 327.3125 56.472656 330.722656 61.304688 C 332.769531 64.152344 337.292969 66.320312 341.882812 66.628906 C 346.035156 66.9375 349.199219 66.011719 348.828125 64.523438 C 348.765625 64.027344 349.570312 63.78125 351.058594 63.78125 C 352.917969 63.78125 353.726562 63.410156 354.714844 62.046875 C 357.816406 57.898438 358.933594 49.539062 357.132812 44.398438 C 354.714844 37.773438 350.191406 34.675781 342.6875 34.675781 C 338.71875 34.675781 338.222656 34.800781 338.535156 35.730469 Z M 342.316406 36.285156 C 342.128906 36.472656 341.574219 36.535156 341.136719 36.347656 C 340.640625 36.164062 340.828125 35.976562 341.511719 35.976562 C 342.191406 35.914062 342.566406 36.101562 342.316406 36.285156 Z M 348.144531 42.046875 C 349.445312 43.347656 350.625 44.273438 350.75 44.152344 C 350.871094 44.027344 351.183594 46.316406 351.429688 49.289062 C 351.742188 52.820312 351.679688 54.863281 351.246094 55.296875 C 350.871094 55.667969 350.5625 56.351562 350.5625 56.785156 C 350.5625 58.332031 346.035156 61.921875 344.113281 61.921875 C 343.679688 61.921875 341.882812 61.488281 340.144531 60.996094 C 337.417969 60.191406 336.738281 59.632812 335.621094 57.527344 C 333.140625 52.632812 333.449219 46.132812 336.363281 42.417969 C 338.039062 40.375 339.589844 39.691406 343.058594 39.691406 C 345.355469 39.628906 346.097656 39.941406 348.144531 42.046875 Z M 353.351562 42.726562 C 353.167969 43.035156 352.734375 43.347656 352.359375 43.347656 C 352.050781 43.347656 351.800781 43.035156 351.800781 42.726562 C 351.800781 42.355469 352.238281 42.105469 352.792969 42.105469 C 353.289062 42.105469 353.539062 42.355469 353.351562 42.726562 Z M 334.441406 56.597656 C 334.441406 56.722656 334.007812 57.03125 333.449219 57.21875 C 332.953125 57.402344 332.707031 57.339844 332.890625 56.96875 C 333.265625 56.351562 334.441406 56.101562 334.441406 56.597656 Z M 334.441406 56.597656 " fill-opacity="1" fill-rule="nonzero"/><path fill="rgb(100%, 8.628845%, 8.628845%)" d="M 309.640625 36.597656 C 309.640625 37.03125 309.457031 37.152344 309.207031 36.96875 C 309.023438 36.71875 308.464844 36.84375 307.96875 37.277344 C 307.347656 37.773438 306.914062 37.773438 306.417969 37.277344 C 305.488281 36.347656 300.652344 36.285156 299.039062 37.152344 C 297.738281 37.898438 297.429688 40.558594 298.605469 41.242188 C 298.976562 41.488281 301.085938 41.675781 303.195312 41.613281 C 305.363281 41.550781 307.222656 41.734375 307.410156 41.984375 C 307.78125 42.601562 309.144531 59.445312 309.082031 62.851562 C 309.082031 65.699219 309.394531 66.382812 311.316406 67.433594 C 312.433594 67.992188 312.929688 67.867188 314.167969 66.753906 C 315.71875 65.328125 315.71875 65.328125 315.222656 57.589844 C 314.910156 53.316406 314.601562 48.050781 314.476562 45.824219 L 314.230469 41.796875 L 316.710938 40.621094 C 318.445312 39.753906 319.253906 39.628906 319.4375 40.125 C 319.808594 41.300781 322.351562 40.992188 323.652344 39.570312 C 324.523438 38.640625 324.644531 38.082031 324.148438 37.277344 C 323.59375 36.410156 322.226562 36.222656 316.523438 36.039062 C 311.503906 35.914062 309.640625 36.101562 309.640625 36.597656 Z M 313.980469 37.773438 C 313.609375 38.453125 313.050781 38.886719 312.679688 38.640625 C 312.308594 38.390625 312.308594 37.957031 312.804688 37.402344 C 313.859375 36.101562 314.726562 36.347656 313.980469 37.773438 Z M 311.9375 43.097656 C 311.75 43.285156 311.191406 43.347656 310.757812 43.160156 C 310.261719 42.972656 310.449219 42.789062 311.128906 42.789062 C 311.8125 42.726562 312.183594 42.914062 311.9375 43.097656 Z M 311.8125 45.203125 C 311.996094 45.511719 311.75 45.824219 311.253906 45.824219 C 310.695312 45.824219 310.261719 45.511719 310.261719 45.203125 C 310.261719 44.832031 310.511719 44.585938 310.820312 44.585938 C 311.191406 44.585938 311.625 44.832031 311.8125 45.203125 Z M 313.363281 49.910156 C 313.363281 50.035156 312.804688 49.910156 312.121094 49.539062 C 311.441406 49.167969 310.882812 48.734375 310.882812 48.546875 C 310.882812 48.421875 311.441406 48.546875 312.121094 48.917969 C 312.804688 49.289062 313.363281 49.722656 313.363281 49.910156 Z M 311.503906 56.96875 C 311.503906 57.277344 311.378906 57.589844 311.253906 57.589844 C 311.066406 57.589844 310.757812 57.277344 310.570312 56.96875 C 310.386719 56.597656 310.511719 56.351562 310.820312 56.351562 C 311.191406 56.351562 311.503906 56.597656 311.503906 56.96875 Z M 311.9375 60.4375 C 311.75 60.625 311.191406 60.683594 310.757812 60.5 C 310.261719 60.3125 310.449219 60.128906 311.128906 60.128906 C 311.8125 60.066406 312.183594 60.25 311.9375 60.4375 Z M 311.9375 60.4375 " fill-opacity="1" fill-rule="nonzero"/><path fill="rgb(100%, 8.628845%, 8.628845%)" d="M 162.078125 37.835938 C 151.351562 38.453125 137.835938 39.074219 132.007812 39.257812 C 120.289062 39.691406 116.941406 40.0625 115.640625 41.117188 C 114.898438 41.613281 114.835938 41.613281 115.207031 40.992188 C 115.578125 40.3125 114.214844 40.25 107.703125 40.558594 C 103.363281 40.746094 97.535156 41.179688 94.746094 41.550781 C 92.019531 41.859375 88.238281 42.167969 86.375 42.167969 C 84.515625 42.230469 82.53125 42.539062 81.972656 42.851562 C 81.355469 43.160156 80.859375 43.160156 80.859375 42.914062 C 80.859375 42.417969 60.398438 43.46875 34.046875 45.265625 C 19.910156 46.195312 18.421875 46.316406 15.011719 46.378906 C 12.472656 46.441406 12.160156 46.566406 12.472656 47.679688 C 12.65625 48.363281 13.027344 48.734375 13.339844 48.546875 C 13.648438 48.363281 13.898438 48.484375 13.898438 48.796875 C 13.898438 49.167969 13.402344 49.601562 12.84375 49.785156 C 12.222656 50.035156 12.039062 50.40625 12.410156 50.714844 C 12.96875 51.273438 31.445312 50.527344 34.171875 49.847656 C 34.855469 49.664062 39.070312 49.414062 43.472656 49.289062 C 47.8125 49.105469 56.304688 48.734375 62.257812 48.363281 C 68.210938 47.992188 74.71875 47.679688 76.640625 47.617188 C 78.625 47.558594 80.113281 47.308594 79.992188 47.125 C 79.867188 46.9375 84.703125 46.628906 90.714844 46.566406 C 96.730469 46.441406 101.875 46.132812 102.25 45.945312 C 102.992188 45.453125 104.605469 45.390625 118.988281 44.957031 C 125.128906 44.769531 135.046875 44.335938 141 43.964844 C 146.953125 43.59375 156.4375 43.097656 162.019531 42.789062 C 170.324219 42.355469 172.308594 42.046875 172.742188 41.242188 C 173.425781 40 174.480469 39.941406 174.480469 41.179688 C 174.480469 41.796875 175.101562 42.105469 176.527344 42.105469 C 179.191406 42.105469 181.363281 41.488281 180.988281 40.867188 C 180.804688 40.558594 180.929688 40.1875 181.300781 39.941406 C 181.609375 39.753906 181.917969 40.0625 181.917969 40.683594 C 181.917969 41.550781 182.355469 41.796875 183.902344 41.675781 C 185.019531 41.613281 186.632812 41.550781 187.4375 41.550781 C 188.492188 41.488281 188.738281 41.300781 188.304688 40.683594 C 187.5625 39.691406 187.4375 37.03125 188.183594 37.464844 C 188.492188 37.710938 188.738281 37.523438 188.738281 37.214844 C 188.738281 36.347656 186.320312 36.410156 162.078125 37.835938 Z M 169.085938 38.824219 C 168.652344 38.949219 167.90625 38.949219 167.535156 38.824219 C 167.101562 38.640625 167.410156 38.515625 168.28125 38.515625 C 169.148438 38.515625 169.457031 38.640625 169.085938 38.824219 Z M 178.632812 40.621094 C 178.449219 40.808594 177.890625 40.867188 177.457031 40.683594 C 176.960938 40.496094 177.144531 40.3125 177.828125 40.3125 C 178.511719 40.25 178.882812 40.433594 178.632812 40.621094 Z M 93.257812 44.585938 C 93.257812 44.894531 92.949219 45.203125 92.578125 45.203125 C 92.265625 45.203125 92.140625 44.894531 92.328125 44.585938 C 92.515625 44.210938 92.824219 43.964844 93.011719 43.964844 C 93.132812 43.964844 93.257812 44.210938 93.257812 44.585938 Z M 22.578125 47.371094 C 22.578125 47.867188 22.144531 48.300781 21.648438 48.300781 C 20.035156 48.300781 20.53125 47.0625 22.453125 46.503906 C 22.515625 46.441406 22.578125 46.875 22.578125 47.371094 Z M 31.566406 47.742188 C 32.3125 48.917969 31.257812 49.167969 30.203125 48.113281 C 29.210938 47.125 29.210938 47.0625 30.140625 47.0625 C 30.699219 47.0625 31.382812 47.371094 31.566406 47.742188 Z M 31.566406 47.742188 " fill-opacity="1" fill-rule="nonzero"/><path fill="rgb(100%, 8.628845%, 8.628845%)" d="M 286.390625 38.328125 C 286.578125 38.703125 286.640625 39.011719 286.453125 39.011719 C 286.328125 39.011719 285.648438 39.195312 285.027344 39.382812 C 284.097656 39.691406 284.097656 39.628906 284.839844 39.074219 C 285.523438 38.578125 284.46875 38.453125 280.8125 38.453125 C 278.082031 38.453125 275.105469 38.578125 274.117188 38.761719 C 272.070312 39.195312 270.765625 41.179688 271.820312 42.417969 C 272.316406 42.972656 272.316406 43.285156 271.820312 43.46875 C 271.324219 43.59375 271.261719 45.328125 271.574219 49.105469 C 271.945312 53.75 272.132812 54.492188 273 54.246094 C 273.804688 53.933594 273.742188 54.058594 272.875 54.738281 C 272.070312 55.359375 271.882812 56.039062 272.195312 57.21875 C 272.503906 58.519531 272.9375 58.828125 274.363281 58.828125 C 275.417969 58.828125 276.347656 58.457031 276.535156 57.898438 C 276.78125 57.402344 277.152344 57.09375 277.402344 57.277344 C 277.710938 57.464844 278.207031 57.15625 278.457031 56.660156 C 278.890625 55.917969 280.5625 55.605469 285.773438 55.359375 C 292.714844 55.050781 294.140625 54.554688 294.140625 52.574219 C 294.140625 50.46875 290.792969 49.601562 286.207031 50.527344 C 284.839844 50.839844 284.40625 51.210938 284.65625 51.953125 C 284.902344 52.757812 284.839844 52.757812 284.34375 52.078125 C 283.664062 51.085938 278.578125 50.46875 278.082031 51.335938 C 277.835938 51.644531 277.710938 50.035156 277.710938 47.679688 L 277.710938 43.40625 L 282.050781 43.097656 C 284.46875 42.972656 287.816406 42.789062 289.554688 42.789062 C 292.839844 42.789062 295.691406 41.179688 294.140625 40.25 C 293.769531 40 293.523438 39.445312 293.644531 38.949219 C 293.769531 38.269531 292.902344 38.019531 289.925781 37.898438 C 287.257812 37.773438 286.082031 37.898438 286.390625 38.328125 Z M 273.496094 41.859375 C 273.308594 42.046875 272.75 42.105469 272.316406 41.921875 C 271.820312 41.734375 272.007812 41.550781 272.6875 41.550781 C 273.371094 41.488281 273.742188 41.675781 273.496094 41.859375 Z M 276.160156 52.261719 C 276.160156 52.820312 275.601562 53.128906 274.859375 53.066406 C 273.679688 53.007812 273.679688 52.945312 274.671875 52.203125 C 276.039062 51.210938 276.160156 51.210938 276.160156 52.261719 Z M 277.898438 53.378906 C 277.773438 53.8125 278.082031 54.121094 278.515625 53.996094 C 279.632812 53.8125 279.449219 54.367188 278.144531 55.050781 C 277.152344 55.546875 277.03125 55.421875 277.152344 54.308594 C 277.339844 52.632812 277.339844 52.632812 277.710938 52.632812 C 277.898438 52.632812 277.960938 53.007812 277.898438 53.378906 Z M 289.925781 54.617188 C 289.492188 55.050781 289.179688 55.113281 289.179688 54.738281 C 289.179688 53.875 289.925781 53.128906 290.359375 53.5625 C 290.484375 53.75 290.296875 54.246094 289.925781 54.617188 Z M 289.925781 54.617188 " fill-opacity="1" fill-rule="nonzero"/><path fill="rgb(100%, 8.628845%, 8.628845%)" d="M 245.59375 39.753906 C 243.363281 40.558594 243.054688 42.167969 243.550781 50.40625 C 243.796875 54.183594 243.984375 58.332031 243.984375 59.570312 C 243.921875 60.808594 244.167969 61.984375 244.539062 62.234375 C 245.035156 62.542969 245.035156 62.914062 244.539062 63.472656 C 244.042969 64.089844 244.105469 64.460938 244.976562 64.957031 C 245.59375 65.328125 245.71875 65.640625 245.347656 65.640625 C 244.355469 65.640625 244.292969 68.363281 245.160156 70.035156 C 246.027344 71.582031 247.765625 71.523438 249.5625 69.972656 C 250.988281 68.796875 250.988281 68.671875 249.933594 68.054688 C 248.882812 67.433594 248.882812 67.3125 249.8125 65.886719 C 250.492188 64.832031 250.742188 63.285156 250.617188 60.808594 C 250.429688 57.527344 250.554688 57.277344 251.855469 57.09375 C 253.53125 56.84375 258.800781 59.261719 258.800781 60.25 C 258.863281 61.488281 261.714844 64.585938 262.398438 64.152344 C 262.769531 63.90625 262.894531 64.277344 262.707031 65.082031 C 262.210938 66.816406 265.496094 70.285156 266.675781 69.292969 C 267.234375 68.796875 267.480469 68.796875 267.480469 69.292969 C 267.480469 69.726562 267.914062 69.726562 269.03125 69.230469 C 270.644531 68.488281 271.078125 67.25 269.960938 66.566406 C 269.589844 66.320312 269.464844 65.886719 269.652344 65.578125 C 269.898438 65.265625 269.589844 65.019531 269.03125 65.019531 C 268.347656 65.019531 268.101562 64.710938 268.289062 64.152344 C 268.722656 63.160156 266.117188 59.507812 263.636719 57.589844 C 262.023438 56.351562 261.09375 54.554688 262.460938 55.421875 C 262.769531 55.605469 263.453125 55.171875 263.945312 54.492188 C 264.382812 53.8125 265 53.441406 265.1875 53.625 C 265.808594 54.246094 268.101562 51.210938 267.792969 50.28125 C 267.605469 49.847656 267.792969 49.664062 268.101562 49.847656 C 269.21875 50.527344 268.785156 44.957031 267.542969 42.972656 C 265.621094 39.816406 263.015625 39.011719 254.648438 39.074219 C 250.617188 39.074219 246.585938 39.382812 245.59375 39.753906 Z M 261.714844 41.859375 C 261.527344 42.046875 260.972656 42.105469 260.539062 41.921875 C 260.042969 41.734375 260.226562 41.550781 260.910156 41.550781 C 261.589844 41.488281 261.964844 41.675781 261.714844 41.859375 Z M 264.628906 44.089844 C 264.257812 44.644531 262.519531 44.027344 262.519531 43.347656 C 262.519531 43.035156 262.894531 42.726562 263.328125 42.539062 C 264.132812 42.292969 265.0625 43.347656 264.628906 44.089844 Z M 259.855469 44.089844 C 259.296875 44.460938 259.359375 44.585938 259.917969 44.585938 C 260.351562 44.585938 261.15625 45.019531 261.652344 45.511719 C 262.769531 46.628906 262.210938 50.714844 260.910156 51.210938 C 260.414062 51.394531 260.164062 51.707031 260.351562 51.953125 C 260.476562 52.203125 258.242188 52.449219 255.453125 52.574219 C 249.5625 52.695312 249.625 52.757812 249.75 47.679688 C 249.8125 44.707031 249.996094 44.273438 251.300781 43.964844 C 253.46875 43.46875 260.660156 43.59375 259.855469 44.089844 Z M 246.835938 46.566406 C 246.648438 47.0625 246.464844 46.875 246.464844 46.195312 C 246.402344 45.511719 246.585938 45.140625 246.773438 45.390625 C 246.957031 45.574219 247.019531 46.132812 246.835938 46.566406 Z M 244.976562 47.679688 C 244.726562 48.609375 245.035156 49.042969 246.152344 49.289062 C 247.019531 49.539062 247.578125 49.785156 247.453125 49.972656 C 247.269531 50.097656 246.464844 50.035156 245.59375 49.847656 C 244.480469 49.539062 244.105469 49.042969 244.105469 47.929688 C 244.105469 47.125 244.355469 46.441406 244.664062 46.441406 C 245.035156 46.441406 245.160156 47 244.976562 47.679688 Z M 246.402344 51.644531 C 246.402344 51.828125 246.152344 52.140625 245.78125 52.324219 C 245.472656 52.511719 245.160156 52.386719 245.160156 52.078125 C 245.160156 51.707031 245.472656 51.394531 245.78125 51.394531 C 246.152344 51.394531 246.402344 51.519531 246.402344 51.644531 Z M 257.5625 55.113281 C 257.5625 55.792969 257.4375 56.351562 257.3125 56.351562 C 257.1875 56.351562 256.941406 55.792969 256.753906 55.113281 C 256.570312 54.429688 256.691406 53.875 257.003906 53.875 C 257.3125 53.875 257.5625 54.429688 257.5625 55.113281 Z M 260.972656 54.492188 C 261.15625 54.800781 260.785156 55.113281 260.042969 55.113281 C 259.296875 55.113281 258.925781 54.800781 259.109375 54.492188 C 259.296875 54.121094 259.730469 53.875 260.042969 53.875 C 260.351562 53.875 260.785156 54.121094 260.972656 54.492188 Z M 260.972656 54.492188 " fill-opacity="1" fill-rule="nonzero"/><path fill="rgb(100%, 8.628845%, 8.628845%)" d="M 223.523438 41.550781 C 222.65625 41.859375 220.792969 43.097656 219.367188 44.273438 C 213.726562 48.917969 212.796875 59.757812 217.382812 67.371094 C 219.367188 70.59375 223.585938 72.699219 228.046875 72.699219 C 230.15625 72.699219 232.574219 72.511719 233.503906 72.328125 C 235.613281 71.894531 238.652344 69.539062 237.597656 69.167969 C 237.164062 69.042969 237.78125 68.488281 239.023438 67.992188 C 242.617188 66.445312 243.671875 60.4375 240.511719 59.199219 C 239.890625 58.949219 239.582031 59.261719 239.582031 60.066406 C 239.582031 60.746094 239.148438 61.613281 238.589844 62.046875 C 238.09375 62.480469 236.480469 63.90625 235.117188 65.144531 C 233.691406 66.507812 231.894531 67.558594 230.960938 67.621094 C 227.304688 67.867188 226.808594 67.929688 225.753906 68.363281 C 225.132812 68.671875 224.453125 68.734375 224.265625 68.488281 C 224.019531 68.300781 224.328125 68.117188 224.886719 68.117188 C 225.507812 68.117188 225.941406 67.929688 225.941406 67.621094 C 225.941406 67.1875 223.832031 65.699219 223.027344 65.578125 C 222.40625 65.453125 220.855469 60.746094 220.917969 59.136719 C 220.917969 58.519531 220.671875 57.652344 220.421875 57.277344 C 220.113281 56.90625 220.421875 54.925781 221.105469 52.632812 C 222.53125 47.929688 225.011719 45.390625 227.925781 45.574219 C 230.714844 45.761719 237.101562 47.867188 236.730469 48.421875 C 236.542969 48.734375 235.921875 48.609375 235.363281 48.175781 C 234.621094 47.617188 234.746094 47.992188 235.675781 49.539062 C 237.164062 51.953125 239.207031 52.574219 241.070312 51.210938 C 242.246094 50.34375 242.246094 50.28125 240.945312 47.496094 C 240.199219 45.945312 238.589844 43.902344 237.347656 42.914062 C 235.304688 41.363281 234.433594 41.179688 230.03125 41.054688 C 227.242188 40.929688 224.328125 41.179688 223.523438 41.550781 Z M 239.582031 47.742188 C 239.582031 48.050781 239.332031 48.300781 238.960938 48.300781 C 238.652344 48.300781 238.339844 47.867188 238.339844 47.308594 C 238.339844 46.8125 238.652344 46.566406 238.960938 46.75 C 239.332031 46.9375 239.582031 47.371094 239.582031 47.742188 Z M 219.429688 48.300781 C 219.617188 48.609375 219.554688 48.917969 219.183594 48.917969 C 218.871094 48.917969 218.375 48.609375 218.191406 48.300781 C 218.003906 47.929688 218.066406 47.679688 218.4375 47.679688 C 218.75 47.679688 219.246094 47.929688 219.429688 48.300781 Z M 240.636719 49.289062 C 240.449219 49.476562 239.890625 49.539062 239.457031 49.351562 C 238.960938 49.167969 239.148438 48.980469 239.828125 48.980469 C 240.511719 48.917969 240.882812 49.105469 240.636719 49.289062 Z M 217.261719 51.394531 C 217.261719 51.707031 216.828125 52.015625 216.269531 52.015625 C 215.773438 52.015625 215.523438 51.707031 215.710938 51.394531 C 215.894531 51.023438 216.332031 50.777344 216.703125 50.777344 C 217.011719 50.777344 217.261719 51.023438 217.261719 51.394531 Z M 218.5 52.632812 C 218.5 52.945312 217.941406 53.5 217.261719 53.875 C 215.894531 54.617188 215.585938 53.933594 216.765625 52.757812 C 217.632812 51.890625 218.5 51.769531 218.5 52.632812 Z M 218.316406 57.339844 C 218.128906 57.527344 217.570312 57.589844 217.136719 57.402344 C 216.640625 57.21875 216.828125 57.03125 217.507812 57.03125 C 218.191406 56.96875 218.5625 57.15625 218.316406 57.339844 Z M 218.871094 62.296875 C 219.742188 63.039062 219.800781 63.160156 219.058594 62.976562 C 218.5 62.789062 217.757812 62.914062 217.445312 63.222656 C 217.136719 63.535156 216.886719 63.285156 216.828125 62.542969 C 216.703125 61.054688 217.261719 60.996094 218.871094 62.296875 Z M 219.058594 65.699219 C 218.128906 66.257812 217.074219 65.824219 217.570312 65.019531 C 217.757812 64.710938 218.375 64.648438 218.871094 64.832031 C 219.617188 65.082031 219.679688 65.328125 219.058594 65.699219 Z M 240.695312 66.566406 C 240.820312 66.628906 240.449219 66.878906 239.890625 67.125 C 239.332031 67.3125 239.085938 67.25 239.269531 66.878906 C 239.519531 66.507812 238.773438 66.257812 237.597656 66.195312 C 235.921875 66.195312 235.796875 66.074219 236.789062 65.699219 C 237.78125 65.265625 239.644531 65.699219 240.695312 66.566406 Z M 223.273438 68.238281 C 223.089844 68.734375 222.902344 68.550781 222.902344 67.867188 C 222.839844 67.1875 223.027344 66.816406 223.210938 67.0625 C 223.398438 67.25 223.460938 67.804688 223.273438 68.238281 Z M 235.550781 68.117188 C 235.363281 68.425781 234.746094 68.734375 234.25 68.734375 C 233.753906 68.734375 233.503906 68.425781 233.691406 68.117188 C 233.875 67.746094 234.496094 67.496094 234.992188 67.496094 C 235.488281 67.496094 235.738281 67.746094 235.550781 68.117188 Z M 230.902344 70.285156 C 230.902344 71.027344 229.722656 71.027344 229.476562 70.285156 C 229.226562 69.726562 229.414062 69.539062 230.03125 69.789062 C 230.464844 69.972656 230.902344 70.222656 230.902344 70.285156 Z M 230.902344 70.285156 " fill-opacity="1" fill-rule="nonzero"/><path fill="rgb(100%, 8.628845%, 8.628845%)" d="M 202.070312 43.285156 C 202.257812 43.65625 202.316406 43.964844 202.132812 43.964844 C 202.007812 43.964844 201.328125 44.152344 200.707031 44.335938 C 199.777344 44.644531 199.777344 44.585938 200.519531 44.027344 C 201.203125 43.53125 200.148438 43.40625 196.488281 43.40625 C 193.761719 43.40625 190.785156 43.53125 189.792969 43.71875 C 187.746094 44.152344 186.445312 46.132812 187.5 47.371094 C 187.996094 47.929688 187.996094 48.238281 187.5 48.421875 C 187.003906 48.546875 186.941406 50.28125 187.253906 54.058594 C 187.625 58.703125 187.808594 59.445312 188.679688 59.199219 C 189.484375 58.890625 189.421875 59.011719 188.554688 59.695312 C 187.746094 60.3125 187.5625 60.996094 187.871094 62.171875 C 188.183594 63.472656 188.617188 63.78125 190.042969 63.78125 C 191.097656 63.78125 192.027344 63.410156 192.210938 62.851562 C 192.460938 62.355469 192.832031 62.046875 193.082031 62.234375 C 193.390625 62.417969 193.886719 62.109375 194.132812 61.613281 C 194.566406 60.871094 196.242188 60.5625 201.449219 60.3125 C 208.394531 60.003906 209.820312 59.507812 209.820312 57.527344 C 209.820312 55.421875 206.472656 54.554688 201.882812 55.484375 C 200.519531 55.792969 200.085938 56.164062 200.335938 56.90625 C 200.582031 57.710938 200.519531 57.710938 200.023438 57.03125 C 199.34375 56.039062 194.257812 55.421875 193.761719 56.289062 C 193.515625 56.597656 193.390625 54.988281 193.390625 52.632812 L 193.390625 48.363281 L 197.730469 48.050781 C 200.148438 47.929688 203.496094 47.742188 205.230469 47.742188 C 208.519531 47.742188 211.371094 46.132812 209.820312 45.203125 C 209.449219 44.957031 209.199219 44.398438 209.324219 43.902344 C 209.449219 43.222656 208.582031 42.972656 205.605469 42.851562 C 202.9375 42.726562 201.761719 42.851562 202.070312 43.285156 Z M 189.175781 46.8125 C 188.988281 47 188.429688 47.0625 187.996094 46.875 C 187.5 46.691406 187.6875 46.503906 188.367188 46.503906 C 189.050781 46.441406 189.421875 46.628906 189.175781 46.8125 Z M 191.839844 57.21875 C 191.839844 57.773438 191.28125 58.085938 190.539062 58.023438 C 189.359375 57.960938 189.359375 57.898438 190.351562 57.15625 C 191.714844 56.164062 191.839844 56.164062 191.839844 57.21875 Z M 193.574219 58.332031 C 193.453125 58.765625 193.761719 59.074219 194.195312 58.949219 C 195.3125 58.765625 195.125 59.324219 193.824219 60.003906 C 192.832031 60.5 192.707031 60.375 192.832031 59.261719 C 193.019531 57.589844 193.019531 57.589844 193.390625 57.589844 C 193.574219 57.589844 193.636719 57.960938 193.574219 58.332031 Z M 205.605469 59.570312 C 205.171875 60.003906 204.859375 60.066406 204.859375 59.695312 C 204.859375 58.828125 205.605469 58.085938 206.039062 58.519531 C 206.164062 58.703125 205.976562 59.199219 205.605469 59.570312 Z M 205.605469 59.570312 " fill-opacity="1" fill-rule="nonzero"/><path fill="rgb(100%, 8.628845%, 8.628845%)" d="M 167.472656 44.585938 C 162.390625 46.195312 159.597656 50.527344 160.839844 55.050781 C 161.582031 57.960938 163.691406 59.816406 167.289062 60.746094 C 176.339844 63.101562 178.261719 63.90625 179.007812 65.453125 C 180.058594 67.804688 178.511719 70.097656 175.160156 71.148438 C 171.75 72.203125 169.890625 71.398438 166.914062 67.558594 C 164.4375 64.214844 163.941406 64.027344 162.019531 65.578125 C 160.589844 66.753906 160.53125 66.816406 161.460938 69.417969 C 162.019531 70.964844 163.320312 72.761719 164.683594 73.875 C 166.605469 75.421875 167.660156 75.734375 171.195312 75.980469 C 176.339844 76.351562 179.066406 75.484375 178.511719 73.6875 C 178.199219 72.636719 178.386719 72.449219 179.8125 72.449219 C 181.175781 72.449219 181.363281 72.574219 180.679688 73.378906 C 179.128906 75.238281 181.113281 74.246094 183.222656 72.078125 C 185.144531 70.097656 185.328125 69.601562 185.269531 66.320312 C 185.207031 64.339844 184.832031 62.109375 184.460938 61.429688 C 183.285156 59.199219 177.144531 56.597656 172.125 56.226562 C 170.945312 56.164062 169.890625 55.855469 169.769531 55.605469 C 169.582031 55.359375 168.652344 55.113281 167.722656 55.113281 C 166.480469 55.113281 166.046875 54.800781 166.109375 53.996094 C 166.296875 51.707031 168.402344 47.246094 169.707031 46.503906 C 171.070312 45.636719 171.070312 45.636719 169.890625 47 L 168.714844 48.300781 L 170.820312 48.300781 C 172 48.300781 174.109375 48.855469 175.410156 49.601562 C 177.023438 50.40625 178.570312 50.714844 179.875 50.527344 C 181.425781 50.28125 181.796875 50.46875 181.484375 51.148438 C 181.300781 51.644531 180.804688 51.953125 180.371094 51.769531 C 179.875 51.582031 179.378906 51.828125 179.191406 52.324219 C 178.757812 53.5 181.113281 54.183594 182.230469 53.253906 C 184.339844 51.519531 182.476562 47.0625 178.945312 45.265625 C 177.082031 44.273438 169.707031 43.839844 167.472656 44.585938 Z M 174.230469 45.078125 C 174.726562 45.390625 174.664062 45.761719 173.984375 46.441406 C 173.117188 47.246094 173.054688 47.183594 173.425781 46.316406 C 173.671875 45.636719 173.425781 45.203125 172.742188 45.019531 C 171.9375 44.769531 171.9375 44.707031 172.621094 44.644531 C 173.117188 44.644531 173.859375 44.832031 174.230469 45.078125 Z M 166.417969 46.691406 C 166.417969 46.875 166.171875 47.183594 165.800781 47.371094 C 165.488281 47.558594 165.179688 47.433594 165.179688 47.125 C 165.179688 46.75 165.488281 46.441406 165.800781 46.441406 C 166.171875 46.441406 166.417969 46.566406 166.417969 46.691406 Z M 180.554688 47.804688 C 180.371094 48.238281 179.253906 48.671875 178.015625 48.796875 C 176.277344 48.917969 175.71875 48.734375 175.71875 48.050781 C 175.71875 47.308594 176.402344 47.0625 178.261719 47.0625 C 179.996094 47.0625 180.679688 47.308594 180.554688 47.804688 Z M 168.898438 56.90625 C 168.898438 57.652344 166.480469 58.207031 165.304688 57.710938 C 164.558594 57.402344 164.871094 57.15625 166.417969 56.90625 C 167.597656 56.660156 168.652344 56.472656 168.777344 56.414062 C 168.835938 56.414062 168.898438 56.597656 168.898438 56.90625 Z M 172 57.277344 C 172.621094 58.023438 172.621094 58.207031 171.75 58.207031 C 171.195312 58.207031 170.757812 57.773438 170.757812 57.277344 C 170.757812 56.785156 170.882812 56.351562 171.007812 56.351562 C 171.132812 56.351562 171.566406 56.785156 172 57.277344 Z M 173.671875 59.199219 C 173.488281 59.382812 172.929688 59.445312 172.496094 59.261719 C 172 59.074219 172.1875 58.890625 172.867188 58.890625 C 173.550781 58.828125 173.921875 59.011719 173.671875 59.199219 Z M 179.378906 59.011719 C 179.253906 59.074219 178.449219 59.695312 177.640625 60.375 L 176.152344 61.613281 L 177.023438 60.191406 C 177.519531 59.445312 178.261719 58.828125 178.757812 58.828125 C 179.253906 58.828125 179.5 58.890625 179.378906 59.011719 Z M 172.433594 60.4375 C 172.246094 60.625 171.691406 60.683594 171.253906 60.5 C 170.757812 60.3125 170.945312 60.128906 171.628906 60.128906 C 172.308594 60.066406 172.683594 60.25 172.433594 60.4375 Z M 179.441406 60.683594 C 179.441406 60.996094 179.191406 61.304688 178.820312 61.304688 C 178.511719 61.304688 178.199219 60.996094 178.199219 60.683594 C 178.199219 60.3125 178.511719 60.066406 178.820312 60.066406 C 179.191406 60.066406 179.441406 60.3125 179.441406 60.683594 Z M 179.441406 60.683594 " fill-opacity="1" fill-rule="nonzero"/><path fill="rgb(100%, 8.628845%, 8.628845%)" d="M 139.945312 47.308594 C 139.015625 48.113281 138.210938 49.414062 138.148438 50.21875 C 138.085938 51.023438 137.773438 52.386719 137.464844 53.253906 C 137.09375 54.121094 135.234375 59.445312 133.3125 65.144531 C 129.46875 76.289062 129.40625 77.589844 132.628906 78.394531 C 134.800781 78.953125 135.792969 77.839844 136.90625 74 C 137.464844 72.203125 138.332031 70.53125 138.890625 70.34375 C 139.449219 70.160156 142.300781 69.972656 145.277344 69.972656 L 150.734375 69.972656 L 151.847656 72.390625 C 152.46875 73.75 153.585938 75.484375 154.390625 76.226562 C 155.632812 77.40625 156.128906 77.527344 157.367188 76.910156 C 158.484375 76.414062 158.855469 75.792969 158.730469 74.496094 C 158.546875 71.894531 157.675781 69.292969 157.121094 69.664062 C 156.871094 69.851562 156.683594 69.601562 156.746094 69.167969 C 156.871094 67.867188 148.191406 48.855469 146.765625 47.308594 C 144.96875 45.390625 142.238281 45.390625 139.945312 47.308594 Z M 144.347656 54.617188 C 145.835938 57.898438 148.4375 64.585938 148.253906 64.773438 C 148.191406 64.832031 146.269531 65.019531 143.976562 65.144531 C 139.261719 65.390625 139.261719 65.453125 140.6875 61.242188 C 141.183594 59.757812 141.679688 57.835938 141.867188 56.96875 C 142.175781 55.050781 142.921875 52.632812 143.230469 52.632812 C 143.355469 52.632812 143.851562 53.5625 144.347656 54.617188 Z M 144.347656 54.617188 " fill-opacity="1" fill-rule="nonzero"/><path fill="rgb(100%, 8.628845%, 8.628845%)" d="M 102.992188 47.804688 C 100.761719 48.609375 100.449219 50.21875 100.945312 58.457031 C 101.195312 62.234375 101.378906 66.382812 101.378906 67.621094 C 101.320312 68.859375 101.566406 70.035156 101.9375 70.285156 C 102.433594 70.59375 102.433594 70.964844 101.9375 71.523438 C 101.441406 72.140625 101.503906 72.511719 102.371094 73.007812 C 102.992188 73.378906 103.117188 73.6875 102.746094 73.6875 C 101.753906 73.6875 101.691406 76.414062 102.558594 78.085938 C 103.425781 79.632812 105.164062 79.570312 106.960938 78.023438 C 108.386719 76.847656 108.386719 76.722656 107.332031 76.105469 C 106.277344 75.484375 106.277344 75.359375 107.207031 73.9375 C 107.890625 72.882812 108.140625 71.335938 108.015625 68.859375 C 107.828125 65.578125 107.953125 65.328125 109.253906 65.144531 C 110.929688 64.894531 116.199219 67.3125 116.199219 68.300781 C 116.261719 69.539062 119.113281 72.636719 119.792969 72.203125 C 120.167969 71.957031 120.289062 72.328125 120.105469 73.132812 C 119.609375 74.867188 122.894531 78.332031 124.074219 77.34375 C 124.632812 76.847656 124.878906 76.847656 124.878906 77.34375 C 124.878906 77.777344 125.3125 77.777344 126.429688 77.28125 C 128.042969 76.539062 128.476562 75.300781 127.359375 74.617188 C 126.988281 74.371094 126.863281 73.9375 127.050781 73.628906 C 127.296875 73.316406 126.988281 73.070312 126.429688 73.070312 C 125.746094 73.070312 125.5 72.761719 125.683594 72.203125 C 126.117188 71.210938 123.515625 67.558594 121.035156 65.640625 C 119.421875 64.402344 118.492188 62.605469 119.855469 63.472656 C 120.167969 63.65625 120.847656 63.222656 121.34375 62.542969 C 121.777344 61.863281 122.398438 61.488281 122.585938 61.675781 C 123.203125 62.296875 125.5 59.261719 125.1875 58.332031 C 125.003906 57.898438 125.1875 57.710938 125.5 57.898438 C 126.613281 58.578125 126.179688 53.007812 124.941406 51.023438 C 123.019531 47.867188 120.414062 47.0625 112.042969 47.125 C 108.015625 47.125 103.984375 47.433594 102.992188 47.804688 Z M 119.113281 49.910156 C 118.925781 50.097656 118.367188 50.15625 117.933594 49.972656 C 117.4375 49.785156 117.625 49.601562 118.308594 49.601562 C 118.988281 49.539062 119.359375 49.722656 119.113281 49.910156 Z M 122.027344 52.140625 C 121.65625 52.695312 119.917969 52.078125 119.917969 51.394531 C 119.917969 51.085938 120.289062 50.777344 120.726562 50.589844 C 121.53125 50.34375 122.460938 51.394531 122.027344 52.140625 Z M 117.253906 52.140625 C 116.695312 52.511719 116.757812 52.632812 117.316406 52.632812 C 117.75 52.632812 118.554688 53.066406 119.050781 53.5625 C 120.167969 54.679688 119.609375 58.765625 118.308594 59.261719 C 117.8125 59.445312 117.5625 59.757812 117.75 60.003906 C 117.871094 60.25 115.640625 60.5 112.851562 60.625 C 106.960938 60.746094 107.023438 60.808594 107.148438 55.730469 C 107.207031 52.757812 107.394531 52.324219 108.695312 52.015625 C 110.867188 51.519531 118.058594 51.644531 117.253906 52.140625 Z M 104.234375 54.617188 C 104.046875 55.113281 103.859375 54.925781 103.859375 54.246094 C 103.796875 53.5625 103.984375 53.191406 104.171875 53.441406 C 104.355469 53.625 104.417969 54.183594 104.234375 54.617188 Z M 102.371094 55.730469 C 102.125 56.660156 102.433594 57.09375 103.550781 57.339844 C 104.417969 57.589844 104.976562 57.835938 104.851562 58.023438 C 104.667969 58.144531 103.859375 58.085938 102.992188 57.898438 C 101.875 57.589844 101.503906 57.09375 101.503906 55.980469 C 101.503906 55.171875 101.753906 54.492188 102.0625 54.492188 C 102.433594 54.492188 102.558594 55.050781 102.371094 55.730469 Z M 103.796875 59.695312 C 103.796875 59.878906 103.550781 60.191406 103.179688 60.375 C 102.867188 60.5625 102.558594 60.4375 102.558594 60.128906 C 102.558594 59.757812 102.867188 59.445312 103.179688 59.445312 C 103.550781 59.445312 103.796875 59.570312 103.796875 59.695312 Z M 114.957031 63.160156 C 114.957031 63.84375 114.835938 64.402344 114.710938 64.402344 C 114.585938 64.402344 114.339844 63.84375 114.152344 63.160156 C 113.96875 62.480469 114.089844 61.921875 114.402344 61.921875 C 114.710938 61.921875 114.957031 62.480469 114.957031 63.160156 Z M 118.367188 62.542969 C 118.554688 62.851562 118.183594 63.160156 117.4375 63.160156 C 116.695312 63.160156 116.324219 62.851562 116.507812 62.542969 C 116.695312 62.171875 117.128906 61.921875 117.4375 61.921875 C 117.75 61.921875 118.183594 62.171875 118.367188 62.542969 Z M 118.367188 62.542969 " fill-opacity="1" fill-rule="nonzero"/><path fill="rgb(100%, 8.628845%, 8.628845%)" d="M 83.339844 49.601562 C 83.339844 50.035156 83.152344 50.15625 82.90625 49.972656 C 82.71875 49.722656 82.160156 49.847656 81.664062 50.28125 C 81.042969 50.777344 80.609375 50.777344 80.113281 50.28125 C 79.183594 49.351562 74.347656 49.289062 72.734375 50.15625 C 71.433594 50.902344 71.125 53.5625 72.300781 54.246094 C 72.675781 54.492188 74.78125 54.679688 76.890625 54.617188 C 79.058594 54.554688 80.921875 54.738281 81.105469 54.988281 C 81.476562 55.605469 82.84375 72.449219 82.78125 75.855469 C 82.78125 78.707031 83.089844 79.386719 85.011719 80.4375 C 86.128906 80.996094 86.625 80.871094 87.863281 79.757812 C 89.414062 78.332031 89.414062 78.332031 88.917969 70.59375 C 88.609375 66.320312 88.296875 61.054688 88.175781 58.828125 L 87.925781 54.800781 L 90.40625 53.625 C 92.140625 52.757812 92.949219 52.632812 93.132812 53.128906 C 93.507812 54.308594 96.046875 53.996094 97.351562 52.574219 C 98.21875 51.644531 98.34375 51.085938 97.847656 50.28125 C 97.289062 49.414062 95.925781 49.230469 90.21875 49.042969 C 85.199219 48.917969 83.339844 49.105469 83.339844 49.601562 Z M 87.679688 50.777344 C 87.304688 51.457031 86.75 51.890625 86.375 51.644531 C 86.003906 51.394531 86.003906 50.960938 86.5 50.40625 C 87.554688 49.105469 88.421875 49.351562 87.679688 50.777344 Z M 85.632812 56.101562 C 85.445312 56.289062 84.886719 56.351562 84.453125 56.164062 C 83.957031 55.980469 84.144531 55.792969 84.828125 55.792969 C 85.507812 55.730469 85.878906 55.917969 85.632812 56.101562 Z M 85.507812 58.207031 C 85.695312 58.519531 85.445312 58.828125 84.949219 58.828125 C 84.390625 58.828125 83.957031 58.519531 83.957031 58.207031 C 83.957031 57.835938 84.207031 57.589844 84.515625 57.589844 C 84.886719 57.589844 85.324219 57.835938 85.507812 58.207031 Z M 87.058594 62.914062 C 87.058594 63.039062 86.5 62.914062 85.820312 62.542969 C 85.136719 62.171875 84.578125 61.738281 84.578125 61.550781 C 84.578125 61.429688 85.136719 61.550781 85.820312 61.921875 C 86.5 62.296875 87.058594 62.726562 87.058594 62.914062 Z M 85.199219 69.972656 C 85.199219 70.285156 85.074219 70.59375 84.949219 70.59375 C 84.765625 70.59375 84.453125 70.285156 84.269531 69.972656 C 84.082031 69.601562 84.207031 69.355469 84.515625 69.355469 C 84.886719 69.355469 85.199219 69.601562 85.199219 69.972656 Z M 85.632812 73.441406 C 85.445312 73.628906 84.886719 73.6875 84.453125 73.503906 C 83.957031 73.316406 84.144531 73.132812 84.828125 73.132812 C 85.507812 73.070312 85.878906 73.253906 85.632812 73.441406 Z M 85.632812 73.441406 " fill-opacity="1" fill-rule="nonzero"/><path fill="rgb(100%, 8.628845%, 8.628845%)" d="M 49.671875 51.457031 C 47.5 52.695312 47.253906 54.925781 47.996094 65.328125 C 49.175781 81.925781 49.113281 81.738281 50.851562 82.359375 C 52.710938 83.101562 69.699219 81.925781 70.8125 80.996094 C 71.804688 80.191406 71.742188 79.140625 70.753906 77.777344 C 70.007812 76.785156 69.015625 76.660156 62.753906 76.722656 L 55.625 76.847656 L 55.191406 74.867188 C 55.003906 73.8125 54.816406 70.71875 54.816406 68.054688 C 54.816406 65.390625 54.570312 63.101562 54.261719 62.914062 C 54.011719 62.726562 53.886719 60.625 54.074219 58.207031 C 54.320312 54.863281 54.136719 53.5625 53.328125 52.324219 C 52.214844 50.652344 51.40625 50.46875 49.671875 51.457031 Z M 49.671875 51.457031 " fill-opacity="1" fill-rule="nonzero"/><path fill="rgb(100%, 8.628845%, 8.628845%)" d="M 39.070312 52.757812 C 38.511719 53.5 38.078125 54.492188 38.078125 54.925781 C 38.078125 55.792969 40.246094 56.597656 41.175781 56.039062 C 41.488281 55.855469 41.796875 55.980469 41.796875 56.351562 C 41.796875 56.722656 40.929688 57.15625 39.9375 57.402344 C 38.140625 57.710938 38.078125 57.835938 38.511719 60.003906 C 38.699219 61.242188 38.882812 62.789062 38.820312 63.472656 C 38.820312 64.089844 39.070312 65.082031 39.503906 65.578125 C 39.9375 66.074219 39.9375 66.320312 39.628906 66.132812 C 39.253906 65.886719 38.945312 67.496094 38.945312 70.46875 C 38.820312 76.972656 38.757812 77.28125 36.714844 77.960938 C 34.542969 78.707031 34.417969 79.199219 36.527344 78.765625 C 37.394531 78.644531 38.078125 78.765625 38.078125 79.078125 C 38.078125 79.820312 30.699219 79.324219 28.777344 78.457031 C 27.910156 78.023438 26.917969 77.035156 26.546875 76.167969 C 25.617188 74.246094 24.933594 68.300781 25.058594 63.65625 C 25.121094 60.5 24.996094 60.128906 24.003906 60.4375 C 22.949219 60.746094 22.949219 60.746094 24.003906 59.878906 C 26.296875 57.960938 24.128906 52.632812 20.964844 52.632812 C 19.476562 52.632812 18.917969 53.316406 18.609375 55.546875 C 18.421875 56.84375 21.214844 59.199219 22.578125 58.949219 C 23.320312 58.765625 23.320312 58.890625 22.761719 59.507812 C 22.144531 60.128906 21.769531 60.066406 20.839844 59.261719 C 18.796875 57.402344 18.484375 58.023438 18.671875 63.90625 C 18.980469 72.636719 19.476562 76.167969 20.34375 76.167969 C 20.839844 76.167969 21.523438 76.601562 21.957031 77.09375 C 22.578125 77.839844 22.578125 78.023438 21.710938 78.023438 C 20.285156 78.023438 20.46875 79.078125 22.265625 80.871094 C 25.492188 84.09375 30.265625 84.960938 36.835938 83.535156 C 41.054688 82.605469 43.410156 80.5625 44.585938 76.601562 C 45.519531 73.503906 45.890625 64.957031 45.144531 64.214844 C 44.898438 63.96875 44.710938 61.984375 44.710938 59.816406 C 44.648438 57.589844 44.464844 55.917969 44.152344 56.101562 C 43.90625 56.289062 43.84375 55.980469 44.03125 55.484375 C 44.339844 54.738281 43.96875 54.492188 42.480469 54.492188 C 41.425781 54.492188 40.558594 54.800781 40.558594 55.171875 C 40.558594 55.484375 40.246094 55.605469 39.875 55.359375 C 39.378906 55.113281 39.441406 54.800781 40 54.367188 C 40.679688 53.933594 40.679688 53.6875 40.0625 53.441406 C 39.132812 53.066406 39.691406 52.015625 40.929688 52.015625 C 41.425781 52.015625 41.796875 52.449219 41.796875 52.945312 C 41.796875 53.441406 42.355469 53.875 43.039062 53.875 C 44.648438 53.875 44.03125 52.261719 42.230469 51.769531 C 40.1875 51.210938 40.0625 51.273438 39.070312 52.757812 Z M 41.796875 59.074219 C 41.796875 59.199219 41.238281 59.445312 40.558594 59.632812 C 39.875 59.816406 39.441406 59.695312 39.691406 59.382812 C 40 58.828125 41.796875 58.578125 41.796875 59.074219 Z M 22.886719 63.78125 C 22.703125 64.089844 21.769531 64.339844 20.839844 64.339844 L 19.167969 64.277344 L 21.027344 63.78125 C 22.082031 63.535156 22.949219 63.285156 23.074219 63.222656 C 23.199219 63.222656 23.074219 63.410156 22.886719 63.78125 Z M 20.71875 68.117188 C 20.71875 68.425781 20.59375 68.734375 20.46875 68.734375 C 20.285156 68.734375 19.972656 68.425781 19.789062 68.117188 C 19.601562 67.746094 19.726562 67.496094 20.035156 67.496094 C 20.40625 67.496094 20.71875 67.746094 20.71875 68.117188 Z M 25.675781 80.128906 C 25.675781 80.253906 24.996094 80.5 24.128906 80.625 C 23.320312 80.8125 22.761719 80.6875 22.949219 80.4375 C 23.257812 79.882812 25.675781 79.632812 25.675781 80.128906 Z M 29.210938 80.871094 C 29.027344 81.058594 28.46875 81.121094 28.035156 80.933594 C 27.539062 80.75 27.722656 80.5625 28.40625 80.5625 C 29.085938 80.5 29.460938 80.6875 29.210938 80.871094 Z M 29.210938 80.871094 " fill-opacity="1" fill-rule="nonzero"/><path fill="rgb(100%, 8.628845%, 8.628845%)" d="M 276.78125 58.828125 C 276.285156 59.136719 274.984375 59.445312 273.992188 59.445312 L 272.070312 59.445312 L 272.503906 64.152344 C 272.8125 66.9375 273.308594 69.167969 273.804688 69.476562 C 274.238281 69.789062 276.84375 69.910156 279.570312 69.664062 C 282.300781 69.476562 286.578125 69.355469 289.058594 69.355469 C 294.078125 69.417969 296.621094 68.363281 296.621094 66.257812 C 296.621094 63.96875 292.15625 63.101562 286.390625 64.339844 C 285.027344 64.648438 282.671875 64.710938 281.121094 64.460938 L 278.394531 64.089844 L 278.578125 61.117188 C 278.765625 58.144531 278.457031 57.773438 276.78125 58.828125 Z M 275.789062 62.851562 C 275.417969 63.84375 274.300781 64.152344 274.300781 63.285156 C 274.300781 62.605469 274.984375 61.921875 275.601562 61.921875 C 275.914062 61.921875 275.976562 62.355469 275.789062 62.851562 Z M 279.261719 66.878906 C 279.261719 67.1875 279.136719 67.496094 279.011719 67.496094 C 278.828125 67.496094 278.515625 67.1875 278.332031 66.878906 C 278.144531 66.507812 278.269531 66.257812 278.578125 66.257812 C 278.953125 66.257812 279.261719 66.507812 279.261719 66.878906 Z M 279.261719 66.878906 " fill-opacity="1" fill-rule="nonzero"/><path fill="rgb(100%, 8.628845%, 8.628845%)" d="M 192.460938 63.78125 C 191.964844 64.089844 190.660156 64.402344 189.671875 64.402344 L 187.746094 64.402344 L 188.183594 69.105469 C 188.492188 71.894531 188.988281 74.121094 189.484375 74.433594 C 189.917969 74.742188 192.523438 74.867188 195.25 74.617188 C 197.976562 74.433594 202.257812 74.308594 204.734375 74.308594 C 209.757812 74.371094 212.300781 73.316406 212.300781 71.210938 C 212.300781 68.921875 207.835938 68.054688 202.070312 69.292969 C 200.707031 69.601562 198.351562 69.664062 196.800781 69.417969 L 194.070312 69.042969 L 194.257812 66.074219 C 194.445312 63.101562 194.132812 62.726562 192.460938 63.78125 Z M 191.46875 67.804688 C 191.097656 68.796875 189.980469 69.105469 189.980469 68.238281 C 189.980469 67.558594 190.660156 66.878906 191.28125 66.878906 C 191.59375 66.878906 191.652344 67.3125 191.46875 67.804688 Z M 194.941406 71.832031 C 194.941406 72.140625 194.816406 72.449219 194.691406 72.449219 C 194.507812 72.449219 194.195312 72.140625 194.011719 71.832031 C 193.824219 71.460938 193.949219 71.210938 194.257812 71.210938 C 194.628906 71.210938 194.941406 71.460938 194.941406 71.832031 Z M 194.941406 71.832031 " fill-opacity="1" fill-rule="nonzero"/><path fill="rgb(100%, 8.628845%, 8.628845%)" d="M 353.972656 68.054688 C 352.296875 68.300781 350.5625 68.671875 350.128906 68.921875 C 349.757812 69.167969 349.261719 69.105469 349.011719 68.796875 C 348.828125 68.425781 347.339844 68.300781 345.726562 68.488281 C 344.113281 68.613281 336.117188 69.042969 327.933594 69.355469 C 319.75 69.664062 312.121094 70.160156 311.007812 70.53125 C 309.828125 70.902344 309.144531 70.902344 309.332031 70.53125 C 309.828125 69.851562 310.945312 69.789062 296.3125 70.964844 C 289.492188 71.523438 279.324219 72.015625 273.679688 72.140625 C 268.039062 72.265625 261.21875 72.636719 258.492188 72.945312 C 255.761719 73.316406 253.28125 73.441406 252.972656 73.253906 C 252.664062 73.007812 252.601562 73.195312 252.847656 73.628906 C 253.097656 74 252.910156 74.496094 252.414062 74.679688 C 251.855469 74.867188 251.609375 75.484375 251.855469 76.351562 C 252.167969 77.714844 252.167969 77.714844 250.804688 76.539062 C 249.871094 75.734375 249.6875 75.113281 250.121094 74.679688 C 251.175781 73.628906 250.804688 72.945312 249.316406 73.316406 C 248.507812 73.503906 244.539062 73.8125 240.449219 74 C 236.417969 74.183594 230.28125 74.617188 226.871094 74.929688 C 223.460938 75.238281 217.074219 75.734375 212.609375 75.917969 C 208.207031 76.105469 203.1875 76.539062 201.574219 76.785156 C 199.960938 77.035156 197.976562 77.09375 197.234375 76.972656 C 196.488281 76.847656 194.628906 76.972656 193.082031 77.34375 C 191.59375 77.652344 190.167969 77.714844 189.980469 77.464844 C 189.792969 77.21875 185.886719 77.21875 181.300781 77.464844 C 146.515625 79.511719 137.464844 80.003906 132.320312 80.003906 C 129.09375 80.003906 122.957031 80.378906 118.679688 80.8125 C 114.402344 81.246094 110.679688 81.492188 110.371094 81.246094 C 110.0625 81.058594 110 81.246094 110.246094 81.675781 C 110.496094 82.050781 110.308594 82.542969 109.8125 82.730469 C 109.253906 82.917969 109.007812 83.535156 109.253906 84.402344 C 109.566406 85.765625 109.566406 85.765625 108.199219 84.589844 C 107.269531 83.78125 107.085938 83.164062 107.519531 82.730469 C 108.695312 81.554688 108.140625 80.996094 106.15625 81.492188 C 105.039062 81.738281 103.300781 81.863281 102.25 81.800781 C 99.707031 81.617188 86.871094 82.917969 84.578125 83.597656 C 83.339844 83.96875 82.84375 83.90625 83.089844 83.472656 C 83.339844 83.039062 81.972656 82.976562 78.9375 83.226562 C 76.394531 83.410156 68.769531 83.84375 61.949219 84.214844 C 41.117188 85.269531 40.433594 85.394531 42.726562 87.746094 C 44.03125 89.046875 43.535156 89.355469 41.175781 88.859375 C 39.378906 88.488281 39.316406 88.367188 40.371094 87.558594 C 41.117188 87.003906 41.175781 86.753906 40.679688 86.695312 C 40.246094 86.695312 40.0625 86.382812 40.246094 86.011719 C 40.558594 85.578125 39.8125 85.453125 38.015625 85.703125 C 34.480469 86.136719 20.59375 86.941406 19.847656 86.753906 C 19.539062 86.695312 18.175781 86.816406 16.875 87.003906 C 14.640625 87.375 14.515625 87.558594 14.515625 89.605469 L 14.515625 91.832031 L 25.242188 91.339844 C 32.375 91.089844 36.527344 90.65625 37.707031 90.039062 C 39.8125 88.984375 40.621094 88.921875 39.316406 89.851562 C 38.324219 90.53125 38.945312 90.53125 66.289062 88.859375 C 74.472656 88.304688 85.199219 87.746094 90.160156 87.558594 C 95.117188 87.375 100.824219 86.941406 102.867188 86.632812 C 104.914062 86.320312 110.433594 85.949219 115.207031 85.765625 C 134.675781 85.144531 141.308594 84.773438 141.496094 84.214844 C 141.621094 83.84375 141.992188 83.597656 142.300781 83.597656 C 142.671875 83.597656 142.796875 83.78125 142.671875 84.03125 C 142.300781 84.589844 145.089844 84.527344 166.109375 83.289062 C 174.976562 82.792969 187.933594 82.050781 194.878906 81.675781 C 205.417969 81.121094 207.710938 80.871094 208.332031 80.003906 C 208.953125 79.140625 209.199219 79.140625 210.070312 79.820312 C 211.308594 80.8125 213.726562 80.871094 223.769531 80.003906 C 228.234375 79.632812 235.304688 79.140625 239.582031 78.890625 C 243.859375 78.707031 247.515625 78.394531 247.765625 78.273438 C 248.199219 77.960938 266.613281 77.21875 269.03125 77.34375 C 269.714844 77.40625 275.167969 77.09375 281.121094 76.722656 C 289.179688 76.226562 292.09375 75.792969 292.46875 75.175781 C 293.027344 74.246094 294.761719 74 294.761719 74.867188 C 294.761719 75.792969 298.359375 76.167969 301.582031 75.546875 C 303.316406 75.238281 309.828125 74.804688 316.027344 74.617188 C 322.226562 74.433594 329.667969 74.121094 332.582031 73.9375 C 335.433594 73.75 339.773438 73.503906 342.191406 73.378906 C 356.824219 72.636719 362.714844 72.265625 363.023438 72.140625 C 363.210938 72.015625 363.210938 70.902344 363.085938 69.726562 C 362.839844 67.496094 362.777344 67.496094 359.925781 67.558594 C 358.375 67.621094 355.707031 67.867188 353.972656 68.054688 Z M 276.78125 73.6875 C 276.78125 74 276.65625 74.308594 276.535156 74.308594 C 276.347656 74.308594 276.039062 74 275.851562 73.6875 C 275.664062 73.316406 275.789062 73.070312 276.097656 73.070312 C 276.472656 73.070312 276.78125 73.316406 276.78125 73.6875 Z M 255.082031 76.167969 C 255.082031 76.476562 254.769531 76.785156 254.398438 76.785156 C 254.089844 76.785156 253.964844 76.476562 254.152344 76.167969 C 254.335938 75.792969 254.648438 75.546875 254.832031 75.546875 C 254.957031 75.546875 255.082031 75.792969 255.082031 76.167969 Z M 192.460938 78.644531 C 192.460938 78.953125 192.335938 79.261719 192.210938 79.261719 C 192.027344 79.261719 191.714844 78.953125 191.53125 78.644531 C 191.34375 78.273438 191.46875 78.023438 191.777344 78.023438 C 192.148438 78.023438 192.460938 78.273438 192.460938 78.644531 Z M 228.421875 78.644531 C 228.421875 78.953125 228.296875 79.261719 228.171875 79.261719 C 227.988281 79.261719 227.675781 78.953125 227.492188 78.644531 C 227.304688 78.273438 227.429688 78.023438 227.738281 78.023438 C 228.109375 78.023438 228.421875 78.273438 228.421875 78.644531 Z M 105.285156 84.527344 C 105.472656 85.023438 105.347656 85.453125 105.039062 85.453125 C 104.667969 85.453125 104.417969 85.023438 104.417969 84.527344 C 104.417969 84.03125 104.542969 83.597656 104.667969 83.597656 C 104.789062 83.597656 105.039062 84.03125 105.285156 84.527344 Z M 112.480469 84.214844 C 112.480469 84.527344 112.167969 84.835938 111.796875 84.835938 C 111.488281 84.835938 111.363281 84.527344 111.546875 84.214844 C 111.734375 83.84375 112.042969 83.597656 112.230469 83.597656 C 112.355469 83.597656 112.480469 83.84375 112.480469 84.214844 Z M 112.480469 84.214844 " fill-opacity="1" fill-rule="nonzero"/></svg>
